<?xml version="1.0" standalone="no"?>
<!DOCTYPE svg PUBLIC "-//W3C//DTD SVG 20010904//EN" "http://www.w3.org/TR/2001/REC-SVG-20010904/DTD/svg10.dtd">
<svg version="1.0" xmlns="http://www.w3.org/2000/svg"
    width="512.000000pt" height="512.000000pt" viewBox="0 0 512.000000 512.000000"
    preserveAspectRatio="xMidYMid meet">
    <metadata> Created by potrace 1.16, written by Peter Selinger 2001-2019 </metadata>
    <g transform="translate(0.000000,512.000000) scale(0.100000,-0.100000)"
        fill="currentColor" stroke="none">
        <path
            d="M1945 4794 c-296 -43 -513 -115 -710 -234 -569 -344 -878 -916 -826
-1530 27 -313 99 -520 287 -827 128 -211 201 -297 369 -441 307 -263 636 -410
1010 -452 346 -38 732 47 1048 234 57 33 112 58 138 62 63 9 105 42 244 186
l122 128 220 -217 220 -218 -4 -48 -5 -47 149 -153 c176 -179 249 -257 524
-557 113 -124 247 -268 297 -320 l91 -95 1 226 0 225 -117 125 c-65 69 -250
265 -412 437 -218 232 -298 311 -311 307 -9 -3 -23 1 -30 10 -7 8 -19 15 -27
15 -24 0 -485 453 -479 470 34 100 79 218 103 270 50 105 113 359 99 393 -2 7
-5 2 -5 -10 -2 -37 -50 -178 -93 -270 -52 -114 -194 -353 -259 -440 -293 -387
-692 -619 -1161 -673 -146 -17 -392 -8 -523 20 -285 60 -557 194 -785 386
-127 108 -178 176 -315 418 -187 333 -252 536 -262 821 -4 124 -2 171 15 270
61 355 203 635 447 881 240 242 543 401 900 471 137 27 426 24 561 -5 405 -87
788 -325 1099 -682 48 -55 91 -98 96 -95 20 13 -155 257 -270 378 -270 284
-618 482 -976 557 -97 20 -393 35 -470 24z m-1045 -648 c0 -2 -8 -10 -17 -17
-16 -13 -17 -12 -4 4 13 16 21 21 21 13z m-80 -106 c-6 -11 -16 -20 -22 -20
-6 0 -3 9 7 20 10 11 20 20 22 20 2 0 -1 -9 -7 -20z m-30 -34 c0 -2 -8 -10
-17 -17 -16 -13 -17 -12 -4 4 13 16 21 21 21 13z" />
        <path
            d="M2290 3523 c-101 -10 -266 -36 -312 -49 -80 -24 -173 -76 -282 -159
-82 -62 -102 -72 -118 -64 -25 13 -108 1 -131 -19 -14 -12 -17 -25 -12 -49 5
-26 3 -33 -11 -33 -9 0 -55 -13 -103 -29 -47 -16 -131 -41 -186 -56 -131 -35
-235 -85 -273 -131 -45 -54 -65 -139 -65 -274 1 -109 24 -273 44 -312 11 -21
69 -38 128 -38 39 0 48 -5 90 -50 26 -28 45 -52 43 -55 -9 -9 25 -15 173 -29
347 -35 574 -47 877 -45 l306 2 37 -36 c45 -44 96 -57 218 -57 84 0 108 5 248
49 85 27 267 84 404 126 138 42 274 85 304 94 l55 17 14 65 c8 35 22 84 32
109 25 62 43 233 38 354 -7 160 -40 212 -155 250 -43 14 -70 35 -150 115 -250
249 -450 313 -963 309 -118 0 -231 -3 -250 -5z m622 -39 c21 -3 36 -9 34 -13
-2 -3 13 -5 35 -3 49 5 182 -37 266 -84 123 -69 312 -237 300 -268 -5 -12 0
-16 16 -16 29 0 106 -24 147 -45 41 -21 71 -87 77 -169 l4 -61 -24 56 c-56
131 -87 150 -254 150 -102 0 -293 -16 -421 -37 -34 -5 -39 -3 -50 20 -6 13
-28 43 -48 65 l-36 41 27 0 c14 0 33 -7 41 -15 11 -11 34 -14 82 -13 64 2 64
2 15 5 -56 4 -61 9 -40 36 10 13 39 17 152 23 143 7 205 22 205 51 0 28 -93
104 -186 150 -107 53 -197 69 -226 40 -8 -9 -30 -75 -48 -146 l-32 -131 35
-39 c67 -74 70 -100 14 -102 -18 -1 -43 -4 -57 -8 l-25 -7 24 -13 c13 -7 43
-11 67 -9 34 2 44 0 45 -12 1 -12 2 -11 6 2 3 13 26 17 141 24 75 4 193 8 262
9 119 0 127 -1 172 -28 52 -30 88 -72 115 -133 13 -30 17 -65 16 -149 0 -60
-5 -123 -11 -140 -7 -22 -9 3 -8 100 1 117 -1 134 -22 172 -19 37 -47 63 -66
63 -21 0 -61 -95 -94 -225 l-38 -149 -50 -3 c-55 -3 -182 -34 -383 -94 -73
-22 -135 -38 -138 -35 -11 11 53 38 204 84 196 61 236 82 263 137 11 23 20 48
20 56 0 8 -9 -4 -19 -27 -33 -72 -66 -89 -294 -153 -135 -38 -139 -38 -133
-18 3 12 6 29 6 39 0 11 16 20 53 28 150 36 294 83 315 103 54 50 92 176 91
297 l-1 65 -17 -65 c-19 -75 -52 -137 -108 -198 -35 -40 -47 -46 -143 -73 -58
-16 -108 -29 -112 -29 -4 0 -9 71 -11 158 l-3 157 -2 -162 c-1 -90 -6 -163
-10 -163 -5 0 -16 36 -25 80 -19 100 -63 195 -111 243 -65 65 -112 62 -182
-11 -70 -71 -101 -122 -145 -233 -48 -122 -62 -143 -98 -158 -27 -12 -27 -12
-23 -95 4 -81 4 -83 -23 -104 -18 -14 -41 -22 -64 -21 l-36 1 35 7 c20 4 41
11 48 15 18 11 15 117 -4 145 -16 23 -21 23 -118 19 -108 -5 -127 -11 -193
-64 -22 -19 -53 -38 -68 -44 -46 -18 -477 -7 -834 20 l-134 11 -40 -27 c-35
-23 -47 -26 -96 -21 -39 4 -61 12 -72 26 -25 30 -55 308 -36 328 4 3 44 -2 89
-11 121 -24 112 -30 104 78 -5 73 -4 94 6 98 16 5 585 -7 799 -17 86 -4 163
-11 170 -16 19 -12 -12 -69 -63 -115 l-38 -34 -218 0 c-254 1 -540 14 -553 27
-4 4 42 5 104 2 62 -4 235 -10 385 -14 258 -7 274 -7 293 11 30 27 82 104 75
111 -8 8 -343 20 -671 25 l-270 3 2 -25 c5 -46 24 -105 43 -130 24 -32 77 -37
475 -46 273 -6 314 -5 341 9 38 19 93 80 124 135 13 23 27 42 32 42 10 0 11 3
-12 -62 -11 -31 -21 -75 -22 -99 l-3 -44 120 1 c134 2 133 0 -13 -20 -95 -13
-122 -20 -111 -29 2 -2 45 0 94 4 50 5 150 12 223 17 172 12 170 10 154 134
-6 53 -17 98 -26 106 -11 12 -45 14 -168 13 l-153 -1 30 25 c17 14 71 43 120
65 55 25 76 38 55 34 -46 -8 -175 -68 -217 -100 l-33 -25 -163 11 c-89 6 -331
13 -537 16 -367 6 -386 7 -489 40 -38 12 56 67 187 108 46 14 85 26 87 26 2 0
-17 -20 -43 -44 -43 -41 -91 -106 -77 -106 3 0 36 25 73 56 37 30 106 75 154
98 48 24 84 47 80 51 -4 4 3 4 16 1 13 -5 22 -3 22 3 0 6 3 10 8 9 4 -1 36 3
72 10 181 32 782 40 1205 16 l110 -7 13 49 c43 157 58 199 75 202 22 4 22 -23
1 -117 -10 -44 -26 -84 -41 -102 l-25 -29 30 0 c39 0 50 15 73 102 22 86 24
151 6 167 -18 15 -223 49 -371 62 -133 11 -375 0 -531 -26 -49 -8 -91 -13 -93
-11 -6 7 132 34 228 45 52 6 109 13 125 15 45 6 574 -2 617 -10z m-455 -60
c-3 -3 -12 -4 -19 -1 -8 3 -5 6 6 6 11 1 17 -2 13 -5z m361 -56 c-19 -18 -45
-58 -58 -88 l-24 -55 -84 -1 -83 -1 -67 69 c-37 38 -68 75 -70 83 -5 19 21 22
231 24 l188 1 -33 -32z m-692 9 c3 -3 -12 -45 -35 -94 l-40 -88 -133 -7 c-73
-4 -134 -6 -136 -4 -6 7 28 65 59 100 34 39 84 73 138 93 34 13 134 13 147 0z
m1050 -12 c24 -10 39 -25 50 -51 8 -20 13 -38 10 -41 -8 -8 -148 19 -178 34
-30 15 -33 24 -18 54 13 24 83 26 136 4z m-858 -53 c25 -16 25 -35 3 -94 -10
-27 -14 -28 -77 -28 -52 0 -64 3 -56 13 5 6 17 36 25 65 9 29 19 57 22 62 8
12 51 2 83 -18z m965 3 c30 -31 42 -68 20 -63 -17 3 -70 88 -55 88 5 0 21 -11
35 -25z m110 -107 c-4 -7 -10 -2 -15 12 -5 13 -14 31 -20 39 -6 9 1 3 16 -12
14 -16 23 -33 19 -39z m-1723 48 c0 -2 -8 -10 -17 -17 -16 -13 -17 -12 -4 4
13 16 21 21 21 13z m1508 -5 c53 -10 74 -27 52 -41 -20 -13 -210 -13 -210 0 0
6 9 19 20 30 22 22 64 25 138 11z m-1618 -36 c0 -11 -12 -15 -50 -15 -76 0
-65 28 13 29 27 1 37 -3 37 -14z m-623 -400 c-3 -62 -2 -65 21 -65 22 0 22 1
8 22 -28 40 -15 107 18 95 13 -5 15 -16 11 -49 -13 -93 -9 -88 -74 -88 -77 0
-95 16 -85 74 10 65 20 76 64 76 l40 0 -3 -65z m1918 39 c69 -32 104 -116 110
-259 4 -100 4 -100 -4 -22 -11 104 -51 184 -104 210 -36 18 -38 18 -70 0 -95
-55 -166 -257 -167 -475 l0 -98 -203 0 -202 0 -49 35 c-57 40 -55 41 50 19 94
-20 224 -15 276 10 44 21 52 39 78 173 25 133 53 221 92 295 33 62 57 89 103
112 38 20 49 20 90 0z m-446 -38 c18 -22 18 -93 0 -112 -24 -24 -190 -32 -223
-11 -27 18 -62 98 -53 122 9 21 258 22 276 1z m-911 -25 c189 -5 347 -12 350
-16 8 -8 -621 2 -710 12 -32 3 -58 10 -58 15 0 6 16 7 38 4 20 -4 191 -11 380
-15z m80 -47 c144 -4 262 -11 262 -15 0 -12 -63 -11 -413 2 -159 5 -298 14
-310 20 -15 6 14 8 88 4 61 -3 228 -8 373 -11z m2118 -70 l4 -39 -13 41 c-8
23 -18 47 -22 55 -5 10 -3 9 9 -2 9 -8 19 -33 22 -55z m-858 -18 c41 -47 57
-119 57 -256 0 -122 -16 -191 -56 -239 -27 -33 -32 -22 -9 23 30 60 43 142 37
241 -6 105 -28 182 -62 223 -22 27 -24 42 -4 42 4 0 20 -15 37 -34z m869 -130
c-6 -104 -31 -161 -53 -124 -4 6 -3 8 4 4 16 -10 32 58 32 142 0 52 3 71 11
66 8 -5 10 -33 6 -88z m-67 28 c0 -19 -4 -34 -10 -34 -5 0 -10 18 -10 41 0 24
4 38 10 34 6 -3 10 -22 10 -41z m-796 -90 c9 -23 7 -97 -2 -112 -19 -28 -62
20 -62 69 0 49 49 82 64 43z m113 -16 c-3 -8 -6 -5 -6 6 -1 11 2 17 5 13 3 -3
4 -12 1 -19z m-270 -110 c-2 -24 -4 -7 -4 37 0 44 2 63 4 43 2 -21 2 -57 0
-80z m771 25 c6 -20 10 -38 9 -40 -2 -1 -37 -9 -78 -17 -96 -18 -422 -112
-462 -132 -26 -14 -29 -14 -24 -1 3 8 11 33 17 54 11 34 18 41 54 51 299 86
425 121 447 121 21 1 28 -5 37 -36z m-1725 -66 c4 -1 -67 -14 -157 -28 -141
-21 -164 -23 -152 -10 7 9 16 23 19 32 5 15 22 16 144 12 76 -3 142 -5 146 -6z
m575 -24 c-10 -2 -26 -2 -35 0 -10 3 -2 5 17 5 19 0 27 -2 18 -5z m389 -25
c-3 -8 -6 -5 -6 6 -1 11 2 17 5 13 3 -3 4 -12 1 -19z m96 -107 c-2 -3 -16 8
-31 24 l-27 28 31 -24 c17 -13 30 -26 27 -28z" />
        <path
            d="M2185 3106 c-38 -12 -86 -31 -105 -41 -56 -29 -202 -127 -197 -132 3
-2 32 9 65 26 115 58 238 104 367 137 l130 33 -95 0 c-72 0 -112 -5 -165 -23z" />
        <path d="M3379 3083 c23 -35 41 -50 41 -35 0 4 -14 21 -32 38 l-31 29 22 -32z" />
        <path
            d="M2455 3089 c-83 -12 -292 -75 -282 -85 1 -2 36 6 77 16 72 19 265 50
420 69 l75 8 -115 0 c-63 1 -142 -3 -175 -8z" />
        <path
            d="M1060 2582 c0 -3 14 -27 31 -53 47 -73 79 -88 211 -99 149 -13 474
-12 519 0 40 11 96 51 132 95 l25 30 -92 -4 c-109 -4 -710 18 -778 28 -26 5
-48 6 -48 3z m464 -112 c142 -5 261 -12 264 -15 15 -15 -570 9 -596 25 -12 7
-4 8 28 5 25 -3 161 -10 304 -15z" />
        <path
            d="M865 2546 c-24 -17 -16 -109 11 -137 26 -26 120 -43 156 -28 16 6 28
14 28 18 0 17 -68 116 -90 131 -34 25 -84 32 -105 16z" />
        <path
            d="M4292 1653 c-7 -3 10 -28 46 -66 32 -34 151 -161 263 -282 112 -121
269 -290 348 -375 79 -85 150 -162 158 -170 11 -12 13 -10 13 15 0 25 -32 64
-181 225 -183 196 -271 289 -495 521 -134 139 -133 138 -152 132z" />
    </g>
</svg>